1420-03

Dynamite Channel - Japanese Gravure Idols -  DynCh-1420-03.asf

General
Complete name                  : C:\uTorrent\READY\DynCh-1420-03.asf
Format                         : Windows Media
File size                      : 123 MiB
Duration                       : 16mn 53s
Overall bit rate mode          : Constant
Overall bit rate               : 1 015 Kbps
Maximum Overall bit rate       : 1 028 Kbps
Encoded date                   : UTC 2008-07-31 21:40:18.500

Video
ID                             : 2
Format                         : VC-1
Format profile                 : MP@ML
Codec ID                       : WMV3
Codec ID/Info                  : Windows Media Video 9
Codec ID/Hint                  : WMV3
Description of the codec       : Windows Media Video 9
Duration                       : 16mn 53s
Bit rate mode                  : Constant
Bit rate                       : 1 000 Kbps
Width                          : 640 pixels
Height                         : 480 pixels
Display aspect ratio           : 4:3
Frame rate                     : 29.970 fps
Bit depth                      : 8 bits
Scan type                      : Progressive
Compression mode               : Lossy
Bits/(Pixel*Frame)             : 0.109
Stream size                    : 121 MiB (99%)
NumberOfFrames                 : 30369

Audio
ID                             : 1
Format                         : WMA
Format version                 : Version 2
Codec ID                       : 161
Codec ID/Info                  : Windows Media Audio
Description of the codec       : Windows Media Audio 9.2 -  16 kbps, 16 kHz, stereo 2-pass CBR
Duration                       : 16mn 53s
Bit rate mode                  : Constant
Bit rate                       : 16.0 Kbps
Channel(s)                     : 2 channels
Sampling rate                  : 16.0 KHz
Bit depth                      : 16 bits
Stream size                    : 1.93 MiB (2%)